<svg xmlns="http://www.w3.org/2000/svg" viewBox="0 0 257.91 225"><defs><style>.cls-1{fill:#fff;}</style></defs><g id="Laag_2" data-name="Laag 2"><g id="Laag_1-2" data-name="Laag 1"><path class="cls-1" d="M122.24.57a112.22,112.22,0,1,0,112.33,112.1A112.34,112.34,0,0,0,122.24.57ZM71.83,22.81l.1,97.48a11.08,11.08,0,0,1-.29,2.33l-7.1,12.49-7-12.48a6,6,0,0,1-.44-2.32l0-45.33a2.29,2.29,0,0,0-2.32-2.32l-27.51,0A103.82,103.82,0,0,1,71.83,22.81ZM122.47,216A103.22,103.22,0,0,1,23.85,82a2.31,2.31,0,0,0,.46,0l23.48,0,0,38.35a17.43,17.43,0,0,0,2.77,9.29l7.85,13.78a2.31,2.31,0,0,0,2,1.16h8.13a2.33,2.33,0,0,0,2-1.16l7.82-13.8a17.36,17.36,0,0,0,2.75-9.3l-.1-102.11a103.19,103.19,0,0,1,144.06,85.57l-28,0,0-14.38a16.77,16.77,0,0,0-33.53,0l.05,52.7a2.29,2.29,0,0,0,2.33,2.32h4.64a2.3,2.3,0,0,0,2.32-2.33l0-28.89,15,0,0,28.75a2.28,2.28,0,0,0,2.32,2.32h4.65a2.3,2.3,0,0,0,2.32-2.33l0-28.88,28.41,0A103.33,103.33,0,0,1,122.47,216ZM187.84,89.4l0,14.38-15,.15V89.41a7.48,7.48,0,0,1,15,0Zm-48-16.8-12.19,0A4.58,4.58,0,0,0,123,77.27l.06,62.57a4.68,4.68,0,0,0,4.65,4.64h12.2a16.83,16.83,0,0,0,16.68-16.86v-7a16.36,16.36,0,0,0-5.24-12.19,16,16,0,0,0,5.21-12v-7A16.83,16.83,0,0,0,139.81,72.6Zm7.47,55a7.44,7.44,0,0,1-7.4,7.41h-7.55l0-21.92h7.55a7.46,7.46,0,0,1,7.41,7.54Zm0-31.21a7.43,7.43,0,0,1-7.39,7.41H132.3l0-21.93h7.54a7.47,7.47,0,0,1,7.42,7.54Zm-28.12,9.75v4.65a2.29,2.29,0,0,1-2.32,2.32l-16.07,0,0,22.06,12.63,0a2.3,2.3,0,0,1,2.33,2.32v4.65a2.28,2.28,0,0,1-2.32,2.32l-17.27,0a4.69,4.69,0,0,1-4.66-4.64l0-26.7h-4a2.39,2.39,0,0,1-2.32-2.32v-4.65a2.3,2.3,0,0,1,2.33-2.33h4l0-26.58A4.59,4.59,0,0,1,96,72.65l17.28,0A2.29,2.29,0,0,1,115.64,75V79.6a2.3,2.3,0,0,1-2.32,2.32l-12.64,0,0,21.92,16.07,0A2.3,2.3,0,0,1,119.12,106.16Zm-93.62,98-23.62,0A1.68,1.68,0,0,1,.2,202.52v-5.44a1.68,1.68,0,0,1,1.68-1.68l23.62,0a1.67,1.67,0,0,1,1.67,1.67v5.44A1.68,1.68,0,0,1,25.5,204.17ZM27,11.42v5.46a1.67,1.67,0,0,1-1.67,1.67H19.56a1.67,1.67,0,0,0-1.67,1.67V26a1.67,1.67,0,0,1-1.67,1.67H10.77A1.66,1.66,0,0,1,9.1,26V20.24a1.67,1.67,0,0,0-1.67-1.67H1.67A1.66,1.66,0,0,1,0,16.91V11.45A1.67,1.67,0,0,1,1.67,9.78H7.42A1.66,1.66,0,0,0,9.09,8.11V2.35A1.67,1.67,0,0,1,10.75.68h5.46a1.66,1.66,0,0,1,1.66,1.66V8.1a1.66,1.66,0,0,0,1.67,1.66H25.3A1.66,1.66,0,0,1,27,11.42ZM227.75,25.94,213.07,29a1.67,1.67,0,0,1-1.91-2.21l4.78-13.15a1.67,1.67,0,0,1,2.76-.6L220.58,15,235,.49a1.68,1.68,0,0,1,2.37,0l3.85,3.84a1.67,1.67,0,0,1,0,2.37l-14.5,14.54,1.86,1.9A1.67,1.67,0,0,1,227.75,25.94Zm29.67-3-14.5,14.53,1.87,1.9a1.68,1.68,0,0,1-.86,2.81l-14.68,3.06A1.68,1.68,0,0,1,227.34,43l4.79-13.15a1.67,1.67,0,0,1,2.76-.6l1.87,1.92L251.2,16.74a1.68,1.68,0,0,1,2.37,0l3.85,3.84A1.67,1.67,0,0,1,257.42,23ZM68.12,166.46a1.58,1.58,0,0,1,1.13-1.32,5.6,5.6,0,0,0,4.67,2.37c2.16,0,3.39-.89,3.38-2.42,0-1.75-1.82-2.16-3.88-2.64-2.4-.55-4.9-1.38-4.9-4.52,0-2.64,2.27-4.51,5.58-4.52,3.46,0,5.33,1.63,5.33,2.75a1.63,1.63,0,0,1-1.15,1.37,5.1,5.1,0,0,0-4.15-2.08c-1.94,0-3.21.94-3.21,2.38,0,1.7,1.51,2,3.67,2.46,2.64.6,5.18,1.63,5.18,4.63s-2.2,4.63-5.82,4.63S68.12,167.73,68.12,166.46Zm21.94-5c0-4.75,3.28-8.11,7.86-8.11s7.84,3.3,7.85,8.05-3.25,8.08-7.86,8.09S90.07,166.22,90.06,161.5Zm13.22,0c0-3.46-2.24-5.92-5.38-5.92s-5.35,2.4-5.34,5.88,2.23,5.9,5.37,5.89S103.28,164.94,103.28,161.49Zm13.58,6.34V154.71c0-.77.36-1.13,1-1.13h.36c.72,0,1.08.36,1.08,1.13V167h6.74c.74,0,1.15.36,1.15,1.06v.1c0,.69-.4,1.07-1.15,1.08h-7.89A1.26,1.26,0,0,1,116.86,167.83Zm24.27-3.22-1.37,3.55c-.31.87-.83,1.13-1.36,1.13-.72,0-1.42-.52-1.35-.74l5.5-14.25c.2-.5.58-.79,1.71-.79s1.51.28,1.7.79l5.58,14.24c.07.19-.62.74-1.37.74a1.51,1.51,0,0,1-1.46-1.15l-1.37-3.52Zm5.61-2-2.5-6.57-2.52,6.57Zm26.6,5.61c.12.14-.41,1-1.44,1a1.87,1.87,0,0,1-1.6-.95l-4.25-5.2h-1.71v5a1,1,0,0,1-1.08,1.13h-.34c-.67,0-1-.45-1-1.27V155a1.27,1.27,0,0,1,1.32-1.39h4.41c3.79,0,5.8,1.57,5.81,4.64,0,2.64-1.61,4.32-4.63,4.56Zm-5.76-7.1c2.28,0,3.35-1.06,3.35-2.73s-1.15-2.74-3.43-2.73h-3.19v5.47Z"/></g></g></svg>