<svg xmlns="http://www.w3.org/2000/svg" xmlns:xlink="http://www.w3.org/1999/xlink" viewBox="0 0 98.93 86.31"><defs><style>.cls-1{fill:url(#Naamloos_verloop_14);}.cls-2{fill:url(#Naamloos_verloop_14-2);}</style><linearGradient id="Naamloos_verloop_14" x1="19.1" y1="37.67" x2="118.03" y2="37.67" gradientTransform="translate(-19.1 5.58) rotate(-0.06)" gradientUnits="userSpaceOnUse"><stop offset="0" stop-color="#4ba02e"/><stop offset="1" stop-color="#f8b133"/></linearGradient><linearGradient id="Naamloos_verloop_14-2" x1="45.17" y1="56.41" x2="85.57" y2="56.41" xlink:href="#Naamloos_verloop_14"/></defs><g id="Laag_2" data-name="Laag 2"><g id="top_menu" data-name="top menu"><path class="cls-1" d="M46.89.22A43,43,0,1,0,90,43.22,43.09,43.09,0,0,0,46.89.22ZM27.55,8.75l0,37.39a3.94,3.94,0,0,1-.11.89l-2.72,4.8L22.08,47a2.35,2.35,0,0,1-.17-.89l0-17.39a.88.88,0,0,0-.89-.89l-10.55,0A39.84,39.84,0,0,1,27.55,8.75ZM47,82.86A39.6,39.6,0,0,1,9.15,31.43a.55.55,0,0,0,.18,0h9l0,14.71a6.69,6.69,0,0,0,1.06,3.57l3,5.28a.9.9,0,0,0,.78.45h3.12A.88.88,0,0,0,27.1,55l3-5.3a6.63,6.63,0,0,0,1.06-3.56L31.12,7A39.18,39.18,0,0,1,46.9,3.67,39.65,39.65,0,0,1,86.38,39.8H75.62V34.29a6.44,6.44,0,0,0-12.87,0l0,20.22a.88.88,0,0,0,.89.89h1.78a.88.88,0,0,0,.89-.89V43.43h5.73l0,11a.88.88,0,0,0,.89.89h1.78a.88.88,0,0,0,.89-.89V43.37h10.9A39.65,39.65,0,0,1,47,82.86ZM72.05,34.29v5.52l-5.74.06V34.3a2.87,2.87,0,0,1,5.73,0ZM53.63,27.85H49a1.76,1.76,0,0,0-1.78,1.78l0,24A1.79,1.79,0,0,0,49,55.42h4.68A6.47,6.47,0,0,0,60.06,49V46.28a6.31,6.31,0,0,0-2-4.68,6.18,6.18,0,0,0,2-4.62V34.3A6.45,6.45,0,0,0,53.63,27.85ZM56.49,49a2.84,2.84,0,0,1-2.83,2.85h-2.9V43.39h2.9a2.86,2.86,0,0,1,2.84,2.89Zm0-12a2.85,2.85,0,0,1-2.84,2.84H50.75V31.42h2.9a2.87,2.87,0,0,1,2.84,2.9ZM45.69,40.72V42.5a.88.88,0,0,1-.9.9H38.64v8.46h4.84a.88.88,0,0,1,.89.89v1.79a.88.88,0,0,1-.89.89H36.87a1.78,1.78,0,0,1-1.78-1.78l0-10.24H33.53a.91.91,0,0,1-.89-.89V40.74a.88.88,0,0,1,.89-.89h1.55V29.65a1.76,1.76,0,0,1,1.78-1.78h6.63a.88.88,0,0,1,.89.89v1.78a.88.88,0,0,1-.89.89H38.63v8.41H44.8A.88.88,0,0,1,45.69,40.72ZM9.78,78.32H.72a.64.64,0,0,1-.64-.64V75.6A.64.64,0,0,1,.72,75H9.78a.64.64,0,0,1,.64.64v2.09A.64.64,0,0,1,9.78,78.32Zm.57-73.94v2.1a.64.64,0,0,1-.64.64H7.5a.64.64,0,0,0-.64.64V10a.64.64,0,0,1-.64.64H4.13A.64.64,0,0,1,3.49,10V7.76a.64.64,0,0,0-.64-.64H.64A.64.64,0,0,1,0,6.49V4.39a.64.64,0,0,1,.64-.64H2.85a.64.64,0,0,0,.64-.64V.9A.64.64,0,0,1,4.12.26h2.1A.64.64,0,0,1,6.86.9V3.11a.64.64,0,0,0,.64.63H9.71A.64.64,0,0,1,10.35,4.38Zm77,5.57-5.63,1.17a.63.63,0,0,1-.73-.84l1.83-5A.65.65,0,0,1,83.89,5l.72.74L90.15.19a.65.65,0,0,1,.91,0l1.48,1.47a.65.65,0,0,1,0,.91L87,8.15l.72.72A.64.64,0,0,1,87.36,10ZM98.75,8.8l-5.57,5.58.72.73a.64.64,0,0,1-.33,1.07l-5.63,1.18a.64.64,0,0,1-.73-.85l1.83-5a.64.64,0,0,1,1.06-.23l.72.73,5.54-5.55a.65.65,0,0,1,.91,0L98.75,7.9A.63.63,0,0,1,98.75,8.8Z"/><path class="cls-2" d="M26.13,63.85c0-.31.4-.54.43-.5a2.19,2.19,0,0,0,1.8.91c.83,0,1.29-.34,1.29-.93s-.7-.83-1.49-1-1.88-.54-1.88-1.74c0-1,.88-1.73,2.15-1.73s2,.62,2,1a.63.63,0,0,1-.44.53,2,2,0,0,0-1.59-.8c-.75,0-1.24.36-1.24.91s.58.76,1.41,1c1,.23,2,.62,2,1.77S29.76,65,28.37,65,26.13,64.34,26.13,63.85ZM34.55,62a2.94,2.94,0,0,1,3-3.11,3.1,3.1,0,1,1-3,3.11Zm5.07,0a2.09,2.09,0,0,0-2.07-2.27,2.06,2.06,0,0,0-2,2.25,2.09,2.09,0,0,0,2.07,2.26A2.06,2.06,0,0,0,39.62,62Zm5.21,2.43v-5c0-.3.14-.44.4-.44h.14c.27,0,.41.14.41.43v4.71h2.59c.28,0,.44.14.44.41v0a.39.39,0,0,1-.44.42h-3A.48.48,0,0,1,44.83,64.38Zm9.31-1.24-.53,1.37c-.12.33-.32.43-.52.43s-.54-.2-.52-.29l2.11-5.46c.08-.19.22-.31.66-.31s.58.11.65.31l2.14,5.46c0,.07-.24.28-.52.29a.6.6,0,0,1-.57-.45l-.52-1.35Zm2.15-.76-1-2.52-1,2.52Zm10.2,2.15c.05.06-.15.39-.55.39a.73.73,0,0,1-.62-.37l-1.63-2H63v1.93a.38.38,0,0,1-.41.43H62.5c-.26,0-.39-.17-.4-.49v-5a.49.49,0,0,1,.5-.54h1.7c1.45,0,2.22.61,2.23,1.78a1.69,1.69,0,0,1-1.78,1.75Zm-2.21-2.72c.88,0,1.29-.41,1.29-1.05s-.44-1-1.32-1H63v2.1Z"/></g></g></svg>